<?xml version="1.0" standalone="no"?>
<!DOCTYPE svg PUBLIC "-//W3C//DTD SVG 1.1//EN" "http://www.w3.org/Graphics/SVG/1.1/DTD/svg11.dtd">
<svg xmlns:xlink="http://www.w3.org/1999/xlink" width="58.441ex" height="2.843ex" style="vertical-align: -0.838ex;" viewBox="0 -863.1 25162.1 1223.9" xmlns="http://www.w3.org/2000/svg">
<defs>
<path stroke-width="10" id="E1-MJMAIN-2200" d="M0 673Q0 684 7 689T20 694Q32 694 38 680T82 567L126 451H430L473 566Q483 593 494 622T512 668T519 685Q524 694 538 694Q556 692 556 674Q556 670 426 329T293 -15Q288 -22 278 -22T263 -15Q260 -11 131 328T0 673ZM414 410Q414 411 278 411T142 410L278 55L414 410Z"></path>
<path stroke-width="10" id="E1-MJMATHI-73" d="M131 289Q131 321 147 354T203 415T300 442Q362 442 390 415T419 355Q419 323 402 308T364 292Q351 292 340 300T328 326Q328 342 337 354T354 372T367 378Q368 378 368 379Q368 382 361 388T336 399T297 405Q249 405 227 379T204 326Q204 301 223 291T278 274T330 259Q396 230 396 163Q396 135 385 107T352 51T289 7T195 -10Q118 -10 86 19T53 87Q53 126 74 143T118 160Q133 160 146 151T160 120Q160 94 142 76T111 58Q109 57 108 57T107 55Q108 52 115 47T146 34T201 27Q237 27 263 38T301 66T318 97T323 122Q323 150 302 164T254 181T195 196T148 231Q131 256 131 289Z"></path>
<path stroke-width="10" id="E1-MJMAIN-31" d="M213 578L200 573Q186 568 160 563T102 556H83V602H102Q149 604 189 617T245 641T273 663Q275 666 285 666Q294 666 302 660V361L303 61Q310 54 315 52T339 48T401 46H427V0H416Q395 3 257 3Q121 3 100 0H88V46H114Q136 46 152 46T177 47T193 50T201 52T207 57T213 61V578Z"></path>
<path stroke-width="10" id="E1-MJMAIN-2C" d="M78 35T78 60T94 103T137 121Q165 121 187 96T210 8Q210 -27 201 -60T180 -117T154 -158T130 -185T117 -194Q113 -194 104 -185T95 -172Q95 -168 106 -156T131 -126T157 -76T173 -3V9L172 8Q170 7 167 6T161 3T152 1T140 0Q113 0 96 17Z"></path>
<path stroke-width="10" id="E1-MJMAIN-32" d="M109 429Q82 429 66 447T50 491Q50 562 103 614T235 666Q326 666 387 610T449 465Q449 422 429 383T381 315T301 241Q265 210 201 149L142 93L218 92Q375 92 385 97Q392 99 409 186V189H449V186Q448 183 436 95T421 3V0H50V19V31Q50 38 56 46T86 81Q115 113 136 137Q145 147 170 174T204 211T233 244T261 278T284 308T305 340T320 369T333 401T340 431T343 464Q343 527 309 573T212 619Q179 619 154 602T119 569T109 550Q109 549 114 549Q132 549 151 535T170 489Q170 464 154 447T109 429Z"></path>
<path stroke-width="10" id="E1-MJMAIN-2208" d="M84 250Q84 372 166 450T360 539Q361 539 377 539T419 540T469 540H568Q583 532 583 520Q583 511 570 501L466 500Q355 499 329 494Q280 482 242 458T183 409T147 354T129 306T124 272V270H568Q583 262 583 250T568 230H124V228Q124 207 134 177T167 112T231 48T328 7Q355 1 466 0H570Q583 -10 583 -20Q583 -32 568 -40H471Q464 -40 446 -40T417 -41Q262 -41 172 45Q84 127 84 250Z"></path>
<path stroke-width="10" id="E1-MJMATHI-53" d="M308 24Q367 24 416 76T466 197Q466 260 414 284Q308 311 278 321T236 341Q176 383 176 462Q176 523 208 573T273 648Q302 673 343 688T407 704H418H425Q521 704 564 640Q565 640 577 653T603 682T623 704Q624 704 627 704T632 705Q645 705 645 698T617 577T585 459T569 456Q549 456 549 465Q549 471 550 475Q550 478 551 494T553 520Q553 554 544 579T526 616T501 641Q465 662 419 662Q362 662 313 616T263 510Q263 480 278 458T319 427Q323 425 389 408T456 390Q490 379 522 342T554 242Q554 216 546 186Q541 164 528 137T492 78T426 18T332 -20Q320 -22 298 -22Q199 -22 144 33L134 44L106 13Q83 -14 78 -18T65 -22Q52 -22 52 -14Q52 -11 110 221Q112 227 130 227H143Q149 221 149 216Q149 214 148 207T144 186T142 153Q144 114 160 87T203 47T255 29T308 24Z"></path>
<path stroke-width="10" id="E1-MJMAIN-3A" d="M78 370Q78 394 95 412T138 430Q162 430 180 414T199 371Q199 346 182 328T139 310T96 327T78 370ZM78 60Q78 84 95 102T138 120Q162 120 180 104T199 61Q199 36 182 18T139 0T96 17T78 60Z"></path>
<path stroke-width="10" id="E1-MJMAIN-28" d="M94 250Q94 319 104 381T127 488T164 576T202 643T244 695T277 729T302 750H315H319Q333 750 333 741Q333 738 316 720T275 667T226 581T184 443T167 250T184 58T225 -81T274 -167T316 -220T333 -241Q333 -250 318 -250H315H302L274 -226Q180 -141 137 -14T94 250Z"></path>
<path stroke-width="10" id="E1-MJMAIN-2219" d="M55 251Q55 328 112 386T249 444T386 388T444 249Q444 171 388 113T250 55Q170 55 113 112T55 251Z"></path>
<path stroke-width="10" id="E1-MJMAIN-2229" d="M88 -21T75 -21T55 -7V200Q55 231 55 280Q56 414 60 428Q61 430 61 431Q77 500 152 549T332 598Q443 598 522 544T610 405Q611 399 611 194V-7Q604 -22 591 -22Q582 -22 572 -9L570 405Q563 433 556 449T529 485Q498 519 445 538T334 558Q251 558 179 518T96 401Q95 396 95 193V-7Q88 -21 75 -21Z"></path>
<path stroke-width="10" id="E1-MJMAIN-2260" d="M166 -215T159 -215T147 -212T141 -204T139 -197Q139 -190 144 -183L306 133H70Q56 140 56 153Q56 168 72 173H327L406 327H72Q56 332 56 347Q56 360 70 367H426Q597 702 602 707Q605 716 618 716Q625 716 630 712T636 703T638 696Q638 692 471 367H707Q722 359 722 347Q722 336 708 328L451 327L371 173H708Q722 163 722 153Q722 140 707 133H351Q175 -210 170 -212Q166 -215 159 -215Z"></path>
<path stroke-width="10" id="E1-MJMAIN-2205" d="M331 696Q335 708 339 722T345 744T350 759T357 769T367 772Q374 772 381 767T388 754Q388 746 377 712L366 673L378 661Q460 575 460 344Q460 281 456 234T432 126T373 27Q319 -22 250 -22Q214 -22 180 -7Q168 -3 168 -4L159 -33Q148 -71 142 -75Q138 -78 132 -78Q124 -78 118 -72T111 -60Q111 -52 122 -18L133 21L125 29Q39 111 39 344Q39 596 137 675Q187 716 251 716Q265 716 278 714T296 710T315 703T331 696ZM276 676Q264 679 246 679Q196 679 159 631Q134 597 128 536T121 356Q121 234 127 174T151 80L234 366Q253 430 275 506T308 618L318 654Q318 656 294 669L276 676ZM181 42Q207 16 250 16Q291 16 324 47Q354 78 366 136T378 356Q378 470 372 528T349 616L348 613Q348 611 264 326L181 42Z"></path>
<path stroke-width="10" id="E1-MJMAIN-29" d="M60 749L64 750Q69 750 74 750H86L114 726Q208 641 251 514T294 250Q294 182 284 119T261 12T224 -76T186 -143T145 -194T113 -227T90 -246Q87 -249 86 -250H74Q66 -250 63 -250T58 -247T55 -238Q56 -237 66 -225Q221 -64 221 250T66 725Q56 737 55 738Q55 746 60 749Z"></path>
<path stroke-width="10" id="E1-MJMAIN-2192" d="M56 237T56 250T70 270H835Q719 357 692 493Q692 494 692 496T691 499Q691 511 708 511H711Q720 511 723 510T729 506T732 497T735 481T743 456Q765 389 816 336T935 261Q944 258 944 250Q944 244 939 241T915 231T877 212Q836 186 806 152T761 85T740 35T732 4Q730 -6 727 -8T711 -11Q691 -11 691 0Q691 7 696 25Q728 151 835 230H70Q56 237 56 250Z"></path>
<path stroke-width="10" id="E1-MJMAIN-5B" d="M118 -250V750H255V710H158V-210H255V-250H118Z"></path>
<path stroke-width="10" id="E1-MJMAIN-2286" d="M84 346Q84 468 166 546T360 635Q361 635 370 635T395 635T430 636T475 636T524 636H679Q694 628 694 616Q694 607 681 597L522 596H470H441Q366 596 338 592T266 568Q244 557 224 542T179 500T139 433T124 346V341Q124 253 185 185Q244 121 328 103Q348 98 366 98T522 96H681Q694 86 694 76Q694 64 679 56H526Q510 56 480 56T434 55Q350 55 289 71T172 141Q84 223 84 346ZM104 -131T104 -118T118 -98H679Q694 -106 694 -118T679 -138H118Q104 -131 104 -118Z"></path>
<path stroke-width="10" id="E1-MJMAIN-2228" d="M55 580Q56 587 61 592T75 598Q86 598 96 580L333 48L570 580Q579 596 586 597Q588 598 591 598Q609 598 611 580Q611 574 546 426T415 132T348 -15Q343 -22 333 -22T318 -15Q317 -14 252 131T121 425T55 580Z"></path>
<path stroke-width="10" id="E1-MJMAIN-5D" d="M22 710V750H159V-250H22V-210H119V710H22Z"></path>
</defs>
<g stroke="currentColor" fill="currentColor" stroke-width="0" transform="matrix(1 0 0 -1 0 0)">
 <use xlink:href="#E1-MJMAIN-2200" x="0" y="0"></use>
<g transform="translate(561,0)">
 <use xlink:href="#E1-MJMATHI-73" x="0" y="0"></use>
 <use transform="scale(0.707)" xlink:href="#E1-MJMAIN-31" x="670" y="-213"></use>
</g>
 <use xlink:href="#E1-MJMAIN-2C" x="1492" y="0"></use>
<g transform="translate(1941,0)">
 <use xlink:href="#E1-MJMATHI-73" x="0" y="0"></use>
 <use transform="scale(0.707)" xlink:href="#E1-MJMAIN-32" x="670" y="-213"></use>
</g>
 <use xlink:href="#E1-MJMAIN-2208" x="3150" y="0"></use>
 <use xlink:href="#E1-MJMATHI-53" x="4100" y="0"></use>
 <use xlink:href="#E1-MJMAIN-3A" x="5028" y="0"></use>
 <use xlink:href="#E1-MJMAIN-28" x="5588" y="0"></use>
<g transform="translate(5982,0)">
 <use xlink:href="#E1-MJMATHI-73" x="0" y="0"></use>
 <use transform="scale(0.707)" xlink:href="#E1-MJMAIN-31" x="670" y="-213"></use>
</g>
<g transform="translate(6914,0)">
 <use transform="scale(0.707)" xlink:href="#E1-MJMAIN-2219" x="0" y="583"></use>
</g>
 <use xlink:href="#E1-MJMAIN-2229" x="7593" y="0"></use>
<g transform="translate(8487,0)">
 <use xlink:href="#E1-MJMATHI-73" x="0" y="0"></use>
 <use transform="scale(0.707)" xlink:href="#E1-MJMAIN-32" x="670" y="-213"></use>
</g>
<g transform="translate(9418,0)">
 <use transform="scale(0.707)" xlink:href="#E1-MJMAIN-2219" x="0" y="583"></use>
</g>
 <use xlink:href="#E1-MJMAIN-2260" x="10153" y="0"></use>
 <use xlink:href="#E1-MJMAIN-2205" x="11214" y="0"></use>
 <use xlink:href="#E1-MJMAIN-29" x="11719" y="0"></use>
 <use xlink:href="#E1-MJMAIN-2192" x="12391" y="0"></use>
 <use xlink:href="#E1-MJMAIN-5B" x="13673" y="0"></use>
 <use xlink:href="#E1-MJMAIN-28" x="13956" y="0"></use>
<g transform="translate(14350,0)">
 <use xlink:href="#E1-MJMATHI-73" x="0" y="0"></use>
 <use transform="scale(0.707)" xlink:href="#E1-MJMAIN-31" x="670" y="-213"></use>
</g>
<g transform="translate(15281,0)">
 <use transform="scale(0.707)" xlink:href="#E1-MJMAIN-2219" x="0" y="583"></use>
</g>
 <use xlink:href="#E1-MJMAIN-2286" x="16016" y="0"></use>
<g transform="translate(17077,0)">
 <use xlink:href="#E1-MJMATHI-73" x="0" y="0"></use>
 <use transform="scale(0.707)" xlink:href="#E1-MJMAIN-32" x="670" y="-213"></use>
</g>
<g transform="translate(18008,0)">
 <use transform="scale(0.707)" xlink:href="#E1-MJMAIN-2219" x="0" y="583"></use>
</g>
 <use xlink:href="#E1-MJMAIN-29" x="18465" y="0"></use>
 <use xlink:href="#E1-MJMAIN-2228" x="19082" y="0"></use>
 <use xlink:href="#E1-MJMAIN-28" x="19976" y="0"></use>
<g transform="translate(20370,0)">
 <use xlink:href="#E1-MJMATHI-73" x="0" y="0"></use>
 <use transform="scale(0.707)" xlink:href="#E1-MJMAIN-32" x="670" y="-213"></use>
</g>
<g transform="translate(21301,0)">
 <use transform="scale(0.707)" xlink:href="#E1-MJMAIN-2219" x="0" y="583"></use>
</g>
 <use xlink:href="#E1-MJMAIN-2286" x="22036" y="0"></use>
<g transform="translate(23096,0)">
 <use xlink:href="#E1-MJMATHI-73" x="0" y="0"></use>
 <use transform="scale(0.707)" xlink:href="#E1-MJMAIN-31" x="670" y="-213"></use>
</g>
<g transform="translate(24028,0)">
 <use transform="scale(0.707)" xlink:href="#E1-MJMAIN-2219" x="0" y="583"></use>
</g>
 <use xlink:href="#E1-MJMAIN-29" x="24485" y="0"></use>
 <use xlink:href="#E1-MJMAIN-5D" x="24879" y="0"></use>
</g>
</svg>