<?xml version="1.0" standalone="no"?>
<!DOCTYPE svg PUBLIC "-//W3C//DTD SVG 1.1//EN" "http://www.w3.org/Graphics/SVG/1.1/DTD/svg11.dtd">
<svg xmlns:xlink="http://www.w3.org/1999/xlink" width="2.778ex" height="2.176ex" style="vertical-align: -0.338ex; margin-right: -0.13ex;" viewBox="0 -791.3 1196 936.9" xmlns="http://www.w3.org/2000/svg">
<defs>
<path stroke-width="10" id="E1-MJMAINI-6E" d="M449 44Q449 26 465 26Q482 26 502 43Q528 71 547 136Q550 148 552 150T566 153H572Q582 153 585 153T592 150T595 143Q595 133 585 105T547 41T483 -8Q475 -10 459 -10Q421 -10 399 12T377 72Q377 93 393 135Q448 288 448 349Q448 367 447 372Q437 405 408 405Q381 405 357 393T315 360T291 329T278 309Q267 290 262 274T231 151Q199 24 196 16Q182 -11 152 -11T120 18Q120 23 159 181Q199 343 199 346Q202 360 202 372Q202 406 183 406Q163 406 148 374Q142 360 135 338T124 299T117 280T98 278H81Q75 284 75 287Q76 293 78 303T90 341T110 388T141 425T184 442Q195 442 204 441T221 436T235 429T247 421T256 412T262 403T267 394T271 387T273 381L274 378V374L287 387Q342 442 414 442Q474 442 500 410T526 338Q526 290 488 178T449 44Z"></path>
<path stroke-width="10" id="E1-MJMAINI-69" d="M234 599Q234 620 251 638T292 656Q306 656 319 647T332 617Q332 594 313 577T273 560Q260 560 247 569T234 599ZM75 287Q75 292 82 313T103 362T142 413T196 441H214Q248 441 270 419T293 357Q292 338 289 330T245 208Q193 72 193 46Q193 26 209 26Q228 26 247 43Q273 71 292 136Q295 148 297 150T311 153H317Q327 153 330 153T337 150T340 143Q340 133 330 105T292 41T228 -8Q220 -10 204 -10Q160 -10 141 15T122 71Q122 98 171 227T221 384Q221 396 218 400T203 405Q175 403 156 374T128 312T116 279Q115 278 97 278H81Q75 284 75 287Z"></path>
<path stroke-width="10" id="E1-MJMAINI-6C" d="M162 61Q162 26 183 26Q211 26 239 131Q245 151 249 152Q252 153 261 153H266H271Q288 153 288 144Q288 143 286 129Q276 91 266 65T232 14T179 -11Q144 -11 116 12T87 81Q87 96 88 102L216 616Q216 629 209 632T170 637H149Q143 643 143 645T145 664Q150 683 158 683Q163 683 223 688T300 694Q312 694 312 686Q312 676 240 389L164 86Q162 74 162 61Z"></path>
</defs>
<g stroke="currentColor" fill="currentColor" stroke-width="0" transform="matrix(1 0 0 -1 0 0)">
 <use xlink:href="#E1-MJMAINI-6E" x="0" y="0"></use>
 <use xlink:href="#E1-MJMAINI-69" x="567" y="0"></use>
 <use xlink:href="#E1-MJMAINI-6C" x="879" y="0"></use>
</g>
</svg>