<?xml version="1.0" standalone="no"?>
<!DOCTYPE svg PUBLIC "-//W3C//DTD SVG 1.1//EN" "http://www.w3.org/Graphics/SVG/1.1/DTD/svg11.dtd">
<svg xmlns:xlink="http://www.w3.org/1999/xlink" width="1.154ex" height="1.676ex" style="vertical-align: -0.338ex; margin-right: -0.074ex;" viewBox="0 -576.1 497 721.6" xmlns="http://www.w3.org/2000/svg">
<defs>
<path stroke-width="10" id="E1-MJMAINI-76" d="M387 386Q387 407 406 425T445 443Q466 443 479 423T492 371Q492 330 473 253Q411 18 307 -8Q298 -10 279 -10Q208 -10 179 26T149 114Q149 162 185 261T221 384Q221 405 206 405Q177 405 157 375T128 313T116 279Q115 278 97 278H81Q75 284 75 287T79 304T93 342T119 388T158 425T210 441H218Q243 441 268 421T293 357Q292 337 259 245T226 102Q226 26 285 26Q328 26 360 72T422 237Q429 265 429 290Q428 324 408 349T387 386Z"></path>
</defs>
<g stroke="currentColor" fill="currentColor" stroke-width="0" transform="matrix(1 0 0 -1 0 0)">
 <use xlink:href="#E1-MJMAINI-76" x="0" y="0"></use>
</g>
</svg>