<?xml version="1.0" standalone="no"?>
<!DOCTYPE svg PUBLIC "-//W3C//DTD SVG 1.1//EN" "http://www.w3.org/Graphics/SVG/1.1/DTD/svg11.dtd">
<svg xmlns:xlink="http://www.w3.org/1999/xlink" width="10.994ex" height="2.843ex" style="vertical-align: -0.838ex;" viewBox="0 -863.1 4733.3 1223.9" xmlns="http://www.w3.org/2000/svg">
<defs>
<path stroke-width="10" id="E1-MJMAIN-21" d="M78 661Q78 682 96 699T138 716T180 700T199 661Q199 654 179 432T158 206Q156 198 139 198Q121 198 119 206Q118 209 98 431T78 661ZM79 61Q79 89 97 105T141 121Q164 119 181 104T198 61Q198 31 181 16T139 1Q114 1 97 16T79 61Z"></path>
<path stroke-width="10" id="E1-MJMATHI-50" d="M287 628Q287 635 230 637Q206 637 199 638T192 648Q192 649 194 659Q200 679 203 681T397 683Q587 682 600 680Q664 669 707 631T751 530Q751 453 685 389Q616 321 507 303Q500 302 402 301H307L277 182Q247 66 247 59Q247 55 248 54T255 50T272 48T305 46H336Q342 37 342 35Q342 19 335 5Q330 0 319 0Q316 0 282 1T182 2Q120 2 87 2T51 1Q33 1 33 11Q33 13 36 25Q40 41 44 43T67 46Q94 46 127 49Q141 52 146 61Q149 65 218 339T287 628ZM645 554Q645 567 643 575T634 597T609 619T560 635Q553 636 480 637Q463 637 445 637T416 636T404 636Q391 635 386 627Q384 621 367 550T332 412T314 344Q314 342 395 342H407H430Q542 342 590 392Q617 419 631 471T645 554Z"></path>
<path stroke-width="10" id="E1-MJMAIN-3D" d="M56 347Q56 360 70 367H707Q722 359 722 347Q722 336 708 328L390 327H72Q56 332 56 347ZM56 153Q56 168 72 173H708Q722 163 722 153Q722 140 707 133H70Q56 140 56 153Z"></path>
<path stroke-width="10" id="E1-MJMAIN-2223" d="M139 -249H137Q125 -249 119 -235V251L120 737Q130 750 139 750Q152 750 159 735V-235Q151 -249 141 -249H139Z"></path>
</defs>
<g stroke="currentColor" fill="currentColor" stroke-width="0" transform="matrix(1 0 0 -1 0 0)">
 <use xlink:href="#E1-MJMAIN-21" x="0" y="0"></use>
 <use xlink:href="#E1-MJMATHI-50" x="283" y="0"></use>
 <use xlink:href="#E1-MJMAIN-3D" x="1316" y="0"></use>
 <use xlink:href="#E1-MJMATHI-50" x="2377" y="0"></use>
 <use xlink:href="#E1-MJMAIN-2223" x="3411" y="0"></use>
 <use xlink:href="#E1-MJMAIN-21" x="3694" y="0"></use>
 <use xlink:href="#E1-MJMATHI-50" x="3977" y="0"></use>
</g>
</svg>