<?xml version="1.0" standalone="no"?>
<!DOCTYPE svg PUBLIC "-//W3C//DTD SVG 1.1//EN" "http://www.w3.org/Graphics/SVG/1.1/DTD/svg11.dtd">
<svg xmlns:xlink="http://www.w3.org/1999/xlink" width="1.224ex" height="2.009ex" style="vertical-align: -0.671ex; margin-right: -0.084ex;" viewBox="0 -576.1 527 865.1" xmlns="http://www.w3.org/2000/svg">
<defs>
<path stroke-width="10" id="E1-MJMAINI-79" d="M75 287Q75 299 89 333T135 404T205 441Q246 441 269 420T293 357Q292 338 259 245T225 95Q225 26 274 26Q325 26 367 93L405 245Q442 393 446 404Q460 431 490 431T522 402Q522 400 416 -24Q389 -102 327 -153T196 -205Q152 -205 122 -181T91 -119Q91 -84 110 -67T152 -49Q170 -49 180 -60T191 -87Q191 -108 174 -128Q167 -134 157 -138T146 -144Q155 -153 159 -156T173 -163T199 -167Q229 -167 255 -149T297 -105T325 -52T342 -6T347 15Q315 -10 269 -10Q204 -10 176 25T148 108Q148 161 184 262T221 383Q221 405 206 405Q178 405 158 375T128 313T116 279Q115 278 97 278H81Q75 284 75 287Z"></path>
</defs>
<g stroke="currentColor" fill="currentColor" stroke-width="0" transform="matrix(1 0 0 -1 0 0)">
 <use xlink:href="#E1-MJMAINI-79" x="0" y="0"></use>
</g>
</svg>