<?xml version="1.0" standalone="no"?>
<!DOCTYPE svg PUBLIC "-//W3C//DTD SVG 1.1//EN" "http://www.w3.org/Graphics/SVG/1.1/DTD/svg11.dtd">
<svg xmlns:xlink="http://www.w3.org/1999/xlink" width="1.842ex" height="2.509ex" style="vertical-align: -0.671ex; margin-right: -0.049ex;" viewBox="0 -791.3 793 1080.4" xmlns="http://www.w3.org/2000/svg">
<defs>
<path stroke-width="10" id="E1-MJMAINI-51" d="M460 -107Q460 -72 464 -42T468 -7L457 -10Q446 -14 424 -18T379 -22Q276 -22 213 50T149 237Q149 326 186 413T282 563T412 665T552 704Q664 704 726 631T788 442Q788 305 703 180Q627 64 517 13L506 8Q506 7 508 -12T513 -38T522 -59T538 -79T565 -85Q604 -85 634 -59T672 0Q676 11 684 11Q693 11 695 2Q695 -1 690 -20T673 -69T644 -126T599 -174T538 -194Q464 -194 460 -110Q460 -108 460 -107ZM689 481Q689 578 646 621T551 665Q468 665 391 586Q321 512 285 399T249 202Q249 106 295 58Q310 41 314 41Q315 41 315 46Q315 83 344 118T420 154Q450 154 473 135Q493 114 500 69L502 58L512 65Q571 110 613 192T672 348T689 481ZM472 49Q472 118 415 118Q393 118 373 98T353 51Q353 18 386 18H387Q424 18 472 40V49Z"></path>
</defs>
<g stroke="currentColor" fill="currentColor" stroke-width="0" transform="matrix(1 0 0 -1 0 0)">
 <use xlink:href="#E1-MJMAINI-51" x="0" y="0"></use>
</g>
</svg>