<?xml version="1.0" standalone="no"?>
<!DOCTYPE svg PUBLIC "-//W3C//DTD SVG 1.1//EN" "http://www.w3.org/Graphics/SVG/1.1/DTD/svg11.dtd">
<svg xmlns:xlink="http://www.w3.org/1999/xlink" width="6.489ex" height="2.176ex" style="vertical-align: -0.338ex; margin-right: -0.118ex;" viewBox="0 -791.3 2794 936.9" xmlns="http://www.w3.org/2000/svg">
<defs>
<path stroke-width="10" id="E1-MJMAINI-53" d="M198 460Q198 551 269 628T432 705Q516 705 557 644L583 673Q589 679 593 684T600 693T605 698T609 702T611 704T614 705T618 705H620Q633 705 633 698T605 577T573 459L570 456H554Q546 456 543 456T536 457T532 460T531 466Q531 469 533 489T536 532Q536 573 525 600T496 640T462 657T427 662Q369 662 325 612T281 503Q281 475 290 458T318 430T356 415T407 401T463 383Q506 360 522 323T538 258V244Q538 141 465 60T300 -22Q198 -22 152 41L143 31Q137 25 126 12T106 -10T95 -21L92 -22Q88 -22 86 -22Q81 -22 78 -20T74 -16V-14Q74 -11 132 221Q134 227 155 227H171Q177 221 177 215Q177 212 175 205T171 182T169 147Q171 99 195 70T246 33T306 25Q358 25 400 70T453 169Q455 180 455 203V210Q455 263 414 285Q409 288 347 305Q271 328 254 339Q239 350 224 371Q198 409 198 460Z"></path>
<path stroke-width="10" id="E1-MJMAINI-54" d="M178 437Q173 442 171 446Q171 451 238 654Q243 670 250 677H681H762Q792 677 799 676T806 667Q806 661 788 553T768 444Q768 437 746 437Q727 437 723 445Q723 450 729 492T736 562Q736 589 728 602T693 624Q675 630 622 630H595Q575 630 571 629T564 623Q562 621 492 342T422 59Q422 48 502 46H542Q548 38 548 37T545 19Q541 6 535 0H517Q475 2 357 2Q315 2 279 2T223 2T198 1Q179 1 179 9Q179 14 182 24Q187 42 190 44Q194 46 206 46H232Q289 47 301 49T326 65L395 344Q465 619 465 626Q465 629 462 629Q456 631 411 631Q364 631 336 625T288 597T255 549T224 467Q215 442 210 437H178Z"></path>
<path stroke-width="10" id="E1-MJMAINI-4F" d="M149 237Q149 326 186 413T282 563T412 665T552 704Q619 704 667 678T741 611T777 528T788 444Q788 328 728 219T572 44T377 -22Q275 -22 212 50T149 237ZM688 487Q688 570 650 617T548 665Q467 665 398 592T291 413T253 203Q253 119 290 70T387 20Q440 20 489 52T573 135T635 249T675 373T688 487Z"></path>
<path stroke-width="10" id="E1-MJMAINI-50" d="M62 0Q55 7 55 11Q55 27 62 41Q66 46 96 46Q132 47 143 50T160 62Q162 66 231 344T301 626Q301 627 300 629V631Q294 637 239 637H221Q215 642 215 645T217 664Q221 677 227 683H404H431H502Q578 683 615 675T684 636Q729 595 729 531Q729 462 671 396T524 308Q499 302 404 301H318L288 182Q258 63 258 55T310 46Q341 46 343 40Q345 37 342 21Q337 3 333 1Q330 0 321 0Q317 0 301 0T255 1T190 2Q97 2 72 0H62ZM626 555V562Q626 620 552 635Q546 636 481 637Q466 637 450 637T423 636T412 636Q401 635 398 627Q396 622 361 484Q353 452 344 416T330 362L325 344Q325 342 390 342H427Q523 342 567 386Q596 415 611 473T626 555Z"></path>
</defs>
<g stroke="currentColor" fill="currentColor" stroke-width="0" transform="matrix(1 0 0 -1 0 0)">
 <use xlink:href="#E1-MJMAINI-53" x="0" y="0"></use>
 <use xlink:href="#E1-MJMAINI-54" x="567" y="0"></use>
 <use xlink:href="#E1-MJMAINI-4F" x="1288" y="0"></use>
 <use xlink:href="#E1-MJMAINI-50" x="2060" y="0"></use>
</g>
</svg>