<?xml version="1.0" standalone="no"?>
<!DOCTYPE svg PUBLIC "-//W3C//DTD SVG 1.1//EN" "http://www.w3.org/Graphics/SVG/1.1/DTD/svg11.dtd">
<svg xmlns:xlink="http://www.w3.org/1999/xlink" width="1.203ex" height="1.676ex" style="vertical-align: -0.338ex; margin-right: -0.114ex;" viewBox="0 -576.1 518 721.6" xmlns="http://www.w3.org/2000/svg">
<defs>
<path stroke-width="10" id="E1-MJMAINI-78" d="M275 356Q275 383 262 394T233 405Q196 405 166 371T121 289Q119 280 116 279T98 278H81Q77 282 76 283T75 288T78 300Q88 332 109 363T153 411Q195 442 235 442Q306 442 333 386Q373 442 427 442Q461 442 487 421T513 364T494 312T453 296Q436 296 425 305T414 331Q414 352 424 366T446 386L456 390Q448 404 421 404H418Q382 404 358 341Q355 332 328 227T298 105Q295 90 295 75Q295 26 339 26Q365 26 388 43T424 82T444 123T451 146L457 153H474Q490 153 493 152T496 144Q496 133 486 110T456 58T404 10T333 -11Q276 -11 237 45Q197 -11 146 -11Q108 -11 83 10T58 67Q58 99 76 117T119 135Q136 135 147 124T158 96Q158 89 157 85Q149 57 125 45L115 41Q125 26 151 26Q171 26 187 45T214 93Q217 102 244 210T273 330Q275 339 275 356Z"></path>
</defs>
<g stroke="currentColor" fill="currentColor" stroke-width="0" transform="matrix(1 0 0 -1 0 0)">
 <use xlink:href="#E1-MJMAINI-78" x="0" y="0"></use>
</g>
</svg>